<svg width="800" height="800">
  <!-- Background -->
  <rect x="0" y="0" width="800" height="800" fill="#B3D1FF" />
  
  <!-- Professor Oak's Laboratory -->
  <g transform="translate(100,100)">
    <rect x="50" y="50" width="250" height="250" fill="#B3B3B3" />
    <rect x="75" y="75" width="200" height="200" fill="#FFF" />
    <rect x="50" y="125" width="25" height="25" fill="#96D690" />
    <rect x="150" y="150" width="50" height="50" fill="#96D690" />
    <text x="125" y="300" fill="#FFF" font-size="16" text-anchor="middle">Professor Oak's Laboratory</text>
  </g>
  
  <!-- House 1 -->
  <g transform="translate(500,100)">
    <rect x="0" y="0" width="250" height="250" fill="#B3B3B3" />
    <rect x="25" y="25" width="200" height="200" fill="#FFF" />
    <rect x="50" y="75" width="25" height="25" fill="#96D690" />
    <rect x="175" y="125" width="25" height="25" fill="#96D690" />
    <text x="125" y="300" fill="#FFF" font-size="16" text-anchor="middle">House 1</text>
  </g>
  
  <!-- House 2 -->
  <g transform="translate(300,500)">
    <rect x="0" y="0" width="250" height="250" fill="#B3B3B3" />
    <rect x="25" y="25" width="200" height="200" fill="#FFF" />
    <rect x="50" y="75" width="25" height="25" fill="#96D690" />
    <rect x="175" y="125" width="25" height="25" fill="#96D690" />
    <text x="125" y="300" fill="#FFF" font-size="16" text-anchor="middle">House 2</text>
  </g>
  
  <!-- Roads -->
  <rect x="0" y="350" width="800" height="100" fill="#CCC" />
  <rect x="350" y="0" width="100" height="800" fill="#CCC" />
  
  <!-- Park -->
  <g transform="translate(250,350)">
     <rect x="0" y="0" width="300" height="100" fill="#96D690" />
    <circle cx="75" cy="50" r="30" fill="#B3B3B3" />
    <circle cx="225" cy="50" r="30" fill="#B3B3B3" />
    <circle cx="150" cy="25" r="20" fill="#B3B3B3" />
    <circle cx="150" cy="75" r="20" fill="#B3B3B3" />
    <rect x="75" y="0" width="150" height="100" fill="#FFF" />
    <text x="150" y="60" fill="#B3D1FF" font-size="24" text-anchor="middle">P</text>
  </g>
  <!-- Trees -->
  <g transform="translate(0, 200)">
    <circle cx="50" cy="50" r="30" fill="#B3B3B3" />
    <circle cx="200" cy="50" r="30" fill="#B3B3B3" />
    <circle cx="350" cy="50" r="30" fill="#B3B3B3" />
    <circle cx="500" cy="50" r="30" fill="#B3B3B3" />
    <circle cx="650" cy="50" r="30" fill="#B3B3B3" />
    <circle cx="800" cy="50" r="30" fill="#B3B3B3" />
  </g>
  <g transform="translate(200, 0)">
    <circle cx="50" cy="50" r="30" fill="#B3B3B3" />
    <circle cx="200" cy="50" r="30" fill="#B3B3B3" />
    <circle cx="350" cy="50" r="30" fill="#B3B3B3" />
    <circle cx="500" cy="50" r="30" fill="#B3B3B3" />
    <circle cx="650" cy="50" r="30" fill="#B3B3B3" />
    <circle cx="800" cy="50" r="30" fill="#B3B3B3" />
  </g>
  <g transform="translate(600, 200)">
    <circle cx="50" cy="50" r="30" fill="#B3B3B3" />
    <circle cx="200" cy="50" r="30" fill="#B3B3B3" />
    <circle cx="350" cy="50" r="30" fill="#B3B3B3" />
    <circle cx="500" cy="50" r="30" fill="#B3B3B3" />
    <circle cx="650" cy="50" r="30" fill="#B3B3B3" />
    <circle cx="800" cy="50" r="30" fill="#B3B3B3" />
  </g>
  <!-- Beach -->
  <rect x="0" y="700" width="800" height="100" fill="#FFF" />
  <rect x="100" y="750" width="600" height="50" fill="#96D690" />
  <g transform="translate(150, 725)">
    <rect x="0" y="0" width="25" height="25" fill="#96D690" />
    <rect x="50" y="0" width="25" height="25" fill="#96D690" />
    <rect x="100" y="0" width="25" height="25" fill="#96D690" />
    <rect x="150" y="0" width="25" height="25" fill="#96D690" />
    <rect x="200" y="0" width="25" height="25" fill="#96D690" />
    <rect x="250" y="0" width="25" height="25" fill="#96D690" />
    <rect x="300" y="0" width="25" height="25" fill="#96D690" />
    <rect x="350" y="0" width="25" height="25" fill="#96D690" />
    <rect x="400" y="0" width="25" height="25" fill="#96D690" />
    <rect x="450" y="0" width="25" height="25" fill="#96D690" />
    <rect x="500" y="0" width="25" height="25" fill="#96D690" />
    <rect x="550" y="0" width="25" height="25" fill="#96D690" />
    <rect x="600" y="0" width="25" height="25" fill="#96D690" />
  </g>
</svg>

